<?xml version="1.0" encoding="UTF-8" standalone="no"?>
<!-- Created with Inkscape (http://www.inkscape.org/) -->
<svg
   xmlns:svg="http://www.w3.org/2000/svg"
   xmlns="http://www.w3.org/2000/svg"
   version="1.0"
   width="500"
   height="150"
   viewBox="0 0 536.8501 109.0229"
   id="svg2"
   xml:space="preserve"><defs
   id="defs24" />
	
		<g
   transform="matrix(0.8055521,0,0,0.8055521,59.809355,9.865619)"
   id="Layer_1">
			<g
   id="g7">
				<path
   d="M 37.2529,21.3901 L 26.8232,57.4644 C 31.5561,48.9839 35.5791,42.6099 38.8935,38.3477 C 44.0634,31.732 49.0869,26.9414 53.9873,23.9458 C 56.8706,22.2412 59.8828,21.3901 63.041,21.3901 C 65.7573,21.3901 68.0205,22.2876 69.812,24.06 C 71.6055,25.8393 72.5019,28.1181 72.5019,30.9003 C 72.5019,33.4779 71.8476,36.8432 70.5454,40.9955 L 64.4849,61.0326 C 73.6729,44.785 82.3819,33.3788 90.6109,26.827 C 95.1758,23.202 99.6827,21.39 104.1363,21.39 C 106.7242,21.39 108.8507,22.3177 110.5137,24.1654 C 112.1787,26.0131 113.0108,28.8724 113.0108,32.7474 C 113.0108,35.7982 112.4644,39.0379 111.3746,42.4603 L 101.4049,73.2152 C 99.2208,79.9037 98.1373,83.6136 98.1373,84.3588 C 98.1373,85.0717 98.3453,85.6879 98.7652,86.2006 C 99.0425,86.559 99.4185,86.7348 99.8873,86.7348 C 100.3521,86.7348 121.8419,76.9955 124.1754,73.1577 L 126.8146,74.8354 C 125.5456,76.9653 99.7848,92.4487 97.505,93.7377 C 95.2252,95.018 93.128,95.6537 91.2037,95.6537 C 89.4366,95.6537 87.9532,95.018 86.7589,93.7377 C 85.5699,92.4535 84.9762,90.8783 84.9762,89.015 C 84.9762,86.4584 86.2399,81.3197 88.7658,73.5951 L 97.1667,47.9501 C 99.0744,42.038 100.0896,38.7611 100.216,38.123 C 100.4006,37.1069 100.4933,36.1215 100.4933,35.1626 C 100.4933,33.8345 100.172,32.7964 99.5431,32.0508 C 98.8512,31.3028 98.0768,30.9312 97.2106,30.9312 C 94.7956,30.9312 92.2384,32.0748 89.5334,34.3624 C 81.5954,41.1319 74.1794,50.607 67.2785,62.8102 C 62.7365,70.8493 58.4772,81.1579 54.5095,93.7243 L 42.4004,93.7243 L 56.9566,45.3947 C 58.542,40.1843 59.3384,36.696 59.3384,34.9343 C 59.3384,33.5002 59.0415,32.4289 58.4444,31.7409 C 57.8419,31.05 57.1036,30.7023 56.2315,30.7023 C 54.438,30.7023 52.5235,31.3405 50.5079,32.6203 C 47.2428,34.6945 43.0284,39.1437 37.8741,45.9577 C 32.7276,52.7805 28.7379,59.2995 25.9005,65.5261 C 24.5401,68.4529 21.2941,77.8532 16.1759,93.7243 L 4.3579,93.7243 L 19.311,41.8579 L 21.2495,35.1299 C 21.6201,34.105 21.8105,33.3506 21.8105,32.8667 C 21.8105,31.6831 21.2705,30.623 20.1938,29.6772 C 19.123,28.7382 17.748,28.27 16.081,28.27 C 15.3793,28.27 3.7763,30.7221 0.6035,31.3598 L 0,28.5205 L 37.2529,21.3901 z "
   id="path9" />
				<path
   d="M 198.7271,22.6392 L 183.2686,76.7476 L 181.4913,84.0035 C 181.3219,84.6988 181.2364,85.2906 181.2364,85.7672 C 181.2364,86.5387 181.4254,87.2057 181.796,87.7731 C 182.0973,88.2086 182.4723,88.4196 182.921,88.4196 C 183.4059,88.4196 197.379,76.9977 201.3468,73.2399 L 204.0597,75.1598 C 199.2199,79.7106 187.1012,89.1539 183.8361,91.7496 C 180.571,94.3541 177.5456,95.6539 174.7687,95.6539 C 172.8444,95.6539 171.3498,95.0836 170.2975,93.9361 C 169.2404,92.7925 168.7106,91.1246 168.7106,88.941 C 168.7106,86.3297 169.299,82.8951 170.4733,78.6324 L 172.1867,72.8238 C 164.5339,81.8609 157.4958,88.1734 151.0788,91.7672 C 146.468,94.3561 141.947,95.6539 137.5085,95.6539 C 133.2439,95.6539 129.5705,94.068 126.4729,90.901 C 123.3816,87.734 121.8333,83.3649 121.8333,77.816 C 121.8333,69.4801 124.5833,60.6939 130.0721,51.441 C 135.5677,42.1969 142.5365,34.7979 150.992,29.2398 C 157.6048,24.8433 163.8489,22.6392 169.7147,22.6392 C 173.2215,22.6392 176.1415,23.42 178.472,24.962 C 180.8021,26.5147 182.5658,29.0836 183.7767,32.6641 L 186.3997,24.5703 L 198.7271,22.6392 z M 169.377,26.8403 C 165.6685,26.8403 161.7315,28.4062 157.5616,31.5381 C 151.6573,35.9634 146.4014,42.5352 141.7984,51.2407 C 137.1924,59.9409 134.8921,67.8159 134.8921,74.8491 C 134.8921,78.394 135.917,81.2007 137.958,83.2554 C 140.0112,85.3179 142.3569,86.3413 145.0039,86.3413 C 151.5679,86.3413 158.7031,82.147 166.4097,73.7612 C 175.8023,62.5991 180.3555,51.1572 180.0596,39.4321 C 180.0596,35 179.1035,31.7934 177.1934,29.8139 C 175.2822,27.8364 172.6758,26.8403 169.377,26.8403 z "
   id="path11" />
				<path
   d="M 505.6274,46.4106 C 505.6274,54.4101 503.5122,62.3217 499.2758,70.1557 C 495.0434,77.9897 489.1449,84.2006 481.5785,88.7807 C 474.0219,93.3637 466.6664,95.6537 459.5355,95.6537 C 452.2347,95.6537 446.2875,93.3266 441.6761,88.6615 C 437.0706,83.9994 434.7698,77.9594 434.7698,70.5521 C 434.7698,62.724 437.0139,54.8607 441.5178,46.9715 C 446.0178,39.0819 452.0354,32.8489 459.5705,28.265 C 467.1057,23.6859 474.3908,21.39 481.4201,21.39 C 488.4533,21.39 494.2385,23.7079 498.7951,28.349 C 503.3481,32.9878 505.6274,39.0073 505.6274,46.4106 z M 492.5669,40.936 C 492.5669,35.9809 491.3481,32.1845 488.9067,29.5454 C 486.479,26.915 483.3247,25.5952 479.477,25.5952 C 471.602,25.5952 464.3579,31.2036 457.7504,42.4121 C 451.1352,53.6294 447.8266,64.7808 447.8266,75.8589 C 447.8266,80.9194 449.1118,84.8218 451.6801,87.5708 C 454.2485,90.3062 457.4946,91.6792 461.4008,91.6792 C 468.9496,91.6792 476.0317,86.103 482.643,74.937 C 489.2603,63.7817 492.5669,52.4458 492.5669,40.936 z "
   id="path13" />
				<path
   d="M 511.9224,20.1694 L 511.9224,2.8379 L 507.0572,2.8379 L 507.0572,0.8189 L 519.5982,0.8189 L 519.5982,2.8379 L 514.733,2.8379 L 514.733,20.1694 L 511.9224,20.1694 z "
   id="path15" />
				<path
   d="M 536.8501,0.8188 L 536.8501,20.1694 L 534.1235,20.1694 L 534.1235,6.2094 L 530.1547,13.56 L 528.7875,13.56 L 524.7836,6.1918 L 524.7836,20.1693 L 522.0531,20.1693 L 522.0531,0.8188 L 524.225,0.8188 L 529.473,10.5864 L 534.7425,0.8188 L 536.8501,0.8188 L 536.8501,0.8188 z "
   id="path17" />
				<path
   d="M 349.6138,21.3901 L 339.188,57.4644 C 343.9224,48.9839 347.9458,42.6099 351.2544,38.3477 C 356.4282,31.732 361.4517,26.9414 366.3521,23.9458 C 369.233,22.2412 372.2505,21.3901 375.4048,21.3901 C 378.1177,21.3901 380.3833,22.2876 382.1743,24.06 C 383.9692,25.8393 384.8657,28.1181 384.8657,30.9003 C 384.8657,33.4779 384.2114,36.8432 382.9087,40.9955 L 376.8462,61.0326 C 386.0357,44.785 394.7407,33.3788 402.9751,26.827 C 407.5415,23.202 412.0454,21.39 416.4985,21.39 C 419.0883,21.39 421.2133,22.3177 422.8755,24.1654 C 424.5435,26.0131 425.3755,28.8724 425.3755,32.7474 C 425.3755,35.7982 424.8286,39.0379 423.7388,42.4603 L 413.7661,73.2152 C 411.5845,79.9037 410.5024,83.6136 410.5024,84.3588 C 410.5024,85.0717 410.7094,85.6879 411.1313,86.2006 C 411.4086,86.559 411.7817,86.7348 412.2485,86.7348 C 412.7153,86.7348 434.2036,76.9955 436.5395,73.1577 L 439.1782,74.8354 C 437.9067,76.9653 412.1469,92.4487 409.8696,93.7377 C 407.5903,95.018 405.4926,95.6537 403.5649,95.6537 C 401.7973,95.6537 400.3149,95.018 399.1235,93.7377 C 397.934,92.4535 397.3403,90.8783 397.3403,89.015 C 397.3403,86.4584 398.604,81.3197 401.1274,73.5951 L 409.5297,47.9501 C 411.4399,42.038 412.4555,38.7611 412.5785,38.123 C 412.764,37.1069 412.8558,36.1215 412.8558,35.1626 C 412.8558,33.8345 412.5335,32.7964 411.9046,32.0508 C 411.2151,31.3028 410.4398,30.9312 409.5745,30.9312 C 407.1585,30.9312 404.6038,32.0748 401.8987,34.3624 C 393.9573,41.1319 386.5413,50.607 379.6389,62.8102 C 375.0998,70.8493 370.842,81.1579 366.8694,93.7243 L 354.7639,93.7243 L 369.3205,45.3947 C 370.9045,40.1843 371.7033,36.696 371.7033,34.9343 C 371.7033,33.5002 371.4045,32.4289 370.8068,31.7409 C 370.2033,31.05 369.465,30.7023 368.5939,30.7023 C 366.8048,30.7023 364.8869,31.3405 362.8712,32.6203 C 359.6036,34.6945 355.3927,39.1437 350.2384,45.9577 C 345.0919,52.7805 341.0978,59.2995 338.2638,65.5261 C 336.9005,68.4529 333.6583,77.8532 328.5392,93.7243 L 316.7228,93.7243 L 331.674,41.8581 L 333.6154,35.1301 C 333.9845,34.1052 334.174,33.3508 334.174,32.8669 C 334.174,31.6833 333.6369,30.6232 332.5549,29.6774 C 331.4846,28.7384 330.1135,28.2702 328.4455,28.2702 C 327.7424,28.2702 316.1428,30.7223 312.967,31.36 L 312.3635,28.5206 L 349.6138,21.3901 z "
   id="path19" />
				<path
   d="M 267.7114,55.1997 C 259.0962,57.1831 247.0849,57.8608 231.7441,57.2671 C 231.0507,61.2612 230.6015,64.6177 230.4179,67.3052 C 229.9179,74.5591 231.8759,81.1353 236.2548,86.9966 C 240.6318,92.8784 246.1933,96.3511 252.9613,97.4419 C 258.3636,98.3257 263.6488,97.9673 268.8011,96.3726 C 273.971,94.7808 281.7523,90.6763 292.1468,84.0386 L 294.2191,87.9536 C 275.4222,104.2358 258.0726,111.0718 242.2069,108.4936 C 231.4227,106.7407 223.5653,101.687 218.6171,93.2983 C 213.6698,84.9184 211.5058,76.2104 212.1249,67.1596 C 212.9516,55.0302 217.2011,43.1684 224.8378,31.5468 C 232.5116,19.9535 241.7138,11.4594 252.4418,6.0864 C 263.1762,0.6933 273.9809,-1.1104 284.8227,0.6538 C 292.6352,1.9253 298.3149,4.6147 301.8325,8.728 C 305.352,12.854 306.9497,17.312 306.6235,22.1225 C 306.1567,28.8769 303.2446,34.9404 297.8696,40.3246 C 290.7915,47.3301 280.731,52.3052 267.7114,55.1997 z M 254.6899,15.3589 C 245.4394,22.7847 238.1992,34.8023 232.9248,51.3833 C 244.2012,51.8213 253.4595,50.9414 260.6899,48.7354 C 270.2934,45.7881 277.6059,41.563 282.6997,36.0669 C 287.7563,30.6143 290.4712,25.0674 290.8579,19.4302 C 291.0903,16.0147 290.2915,13.0806 288.4438,10.6323 C 286.5649,8.2109 283.809,6.6802 280.0922,6.0776 C 272.3911,4.8237 263.9419,7.9116 254.6899,15.3589"
   style="fill:#ff9600"
   id="path21" />
			</g>
		</g>
	</svg>